<?xml version="1.0" encoding="UTF-8" standalone="no"?>
<svg width="24px" height="24px" viewBox="0 0 24 24" version="1.1" xmlns="http://www.w3.org/2000/svg" xmlns:xlink="http://www.w3.org/1999/xlink" xmlns:sketch="http://www.bohemiancoding.com/sketch/ns">
    <!-- Generator: Sketch 3.2.2 (9983) - http://www.bohemiancoding.com/sketch -->
    <title>email</title>
    <desc>Created with Sketch.</desc>
    <defs></defs>
    <g id="Homepage" stroke="none" stroke-width="1" fill="none" fill-rule="evenodd" sketch:type="MSPage">
        <g id="futureminded-one-pager" sketch:type="MSArtboardGroup" transform="translate(-652.000000, -4656.000000)" stroke-linecap="round" stroke="#231F1F">
            <g id="Group" sketch:type="MSLayerGroup" transform="translate(640.000000, 4598.000000)">
                <g id="email" transform="translate(12.000000, 58.000000)" sketch:type="MSShapeGroup">
                    <path d="M16.5,12 C16.5,14.485 14.485,16.5 12,16.5 C9.515,16.5 7.5,14.485 7.5,12 C7.5,9.515 9.515,7.5 12,7.5 C14.485,7.5 16.5,9.515 16.5,12 L16.5,12 Z" id="Stroke-552"></path>
                    <path d="M18.5,21.5 C16.651,22.77 14.412,23.5 12,23.5 C5.649,23.5 0.5,18.351 0.5,12 C0.5,5.649 5.649,0.5 12,0.5 C18.351,0.5 23.5,5.649 23.5,12 L23.5,13 C23.5,14.933 21.933,16.5 20,16.5 C18.067,16.5 16.5,14.933 16.5,13 L16.5,12" id="Stroke-553"></path>
                </g>
            </g>
        </g>
    </g>
</svg>