<?xml version="1.0" encoding="UTF-8" standalone="no"?>
<svg width="20px" height="22px" viewBox="0 0 20 22" version="1.1" xmlns="http://www.w3.org/2000/svg" xmlns:xlink="http://www.w3.org/1999/xlink" xmlns:sketch="http://www.bohemiancoding.com/sketch/ns">
    <!-- Generator: Sketch 3.2.2 (9983) - http://www.bohemiancoding.com/sketch -->
    <title>name</title>
    <desc>Created with Sketch.</desc>
    <defs></defs>
    <g id="Homepage" stroke="none" stroke-width="1" fill="none" fill-rule="evenodd" sketch:type="MSPage">
        <g id="futureminded-one-pager" sketch:type="MSArtboardGroup" transform="translate(-655.000000, -4598.000000)" stroke="#231F1F">
            <g id="Group" sketch:type="MSLayerGroup" transform="translate(640.000000, 4598.000000)">
                <g id="name" transform="translate(15.000000, 1.000000)" sketch:type="MSShapeGroup">
                    <path d="M7.5,11.2812 L7.5,14.0002 L2.491,15.7892 C1.297,16.2152 0.5,17.3462 0.5,18.6142 L0.5,20.5002 L19.5,20.5002 L19.5,18.6142 C19.5,17.3462 18.702,16.2152 17.509,15.7892 L12.5,14.0002 L12.5,11.0942" id="Stroke-1601"></path>
                    <path d="M14.875,6 C14.875,9.314 12.636,12 9.875,12 C7.113,12 4.875,9.314 4.875,6 C4.875,2.687 7.113,0 9.875,0 C12.636,0 14.875,2.687 14.875,6 L14.875,6 Z" id="Stroke-1602"></path>
                    <path d="M14.8281,5.4531 C14.6601,5.4731 14.5441,5.4671 14.3751,5.5001 C12.6721,5.8281 11.5781,5.2111 10.6401,3.5701 C10.0781,4.6481 8.3191,5.5001 6.8751,5.5001 C6.1641,5.5001 5.5521,5.3551 4.9391,5.0341" id="Stroke-1603"></path>
                </g>
            </g>
        </g>
    </g>
</svg>