<?xml version="1.0" encoding="UTF-8" standalone="no"?>
<svg width="24px" height="24px" viewBox="0 0 24 24" version="1.1" xmlns="http://www.w3.org/2000/svg" xmlns:xlink="http://www.w3.org/1999/xlink" xmlns:sketch="http://www.bohemiancoding.com/sketch/ns">
    <!-- Generator: Sketch 3.2.2 (9983) - http://www.bohemiancoding.com/sketch -->
    <title>organization</title>
    <desc>Created with Sketch.</desc>
    <defs></defs>
    <g id="Homepage" stroke="none" stroke-width="1" fill="none" fill-rule="evenodd" sketch:type="MSPage">
        <g id="futureminded-one-pager" sketch:type="MSArtboardGroup" transform="translate(-651.000000, -4715.000000)" stroke-linecap="round" stroke="#231F1F" stroke-linejoin="round">
            <g id="Group" sketch:type="MSLayerGroup" transform="translate(640.000000, 4598.000000)">
                <g id="organization" transform="translate(11.000000, 117.000000)" sketch:type="MSShapeGroup">
                    <path d="M0.5,23.5 L23.5,23.5" id="Stroke-4887"></path>
                    <path d="M16.5,23.5 L7.5,23.5 L7.5,4.5 L16.5,4.5 L16.5,23.5 Z" id="Stroke-4888"></path>
                    <path d="M22.5,13.5 L18.5,13.5 L18.5,23.5 L22.5,23.5 L22.5,13.5 Z" id="Stroke-4889"></path>
                    <path d="M5.5,13.5 L1.5,13.5 L1.5,23.5 L5.5,23.5 L5.5,13.5 Z" id="Stroke-4890"></path>
                    <path d="M4.5,13.5 L4.5,12.5" id="Stroke-4891"></path>
                    <path d="M19.5,13.5 L19.5,12.5" id="Stroke-4892"></path>
                    <path d="M13.5,2.5 L10.5,2.5 L10.5,4.5 L13.5,4.5 L13.5,2.5 Z" id="Stroke-4893"></path>
                    <path d="M12.5,2.5 L12.5,0.5" id="Stroke-4894"></path>
                    <path d="M9.5,7.5 L14.5,7.5" id="Stroke-4895"></path>
                    <path d="M9.5,10.5 L14.5,10.5" id="Stroke-4896"></path>
                    <path d="M9.5,13.5 L14.5,13.5" id="Stroke-4897"></path>
                    <path d="M9.5,16.5 L14.5,16.5" id="Stroke-4898"></path>
                    <path d="M9.5,19.5 L14.5,19.5" id="Stroke-4899"></path>
                </g>
            </g>
        </g>
    </g>
</svg>