<?xml version="1.0" encoding="UTF-8" standalone="no"?>
<svg width="13px" height="7px" viewBox="0 0 13 7" version="1.1" xmlns="http://www.w3.org/2000/svg" xmlns:xlink="http://www.w3.org/1999/xlink" xmlns:sketch="http://www.bohemiancoding.com/sketch/ns">
    <!-- Generator: Sketch 3.2.2 (9983) - http://www.bohemiancoding.com/sketch -->
    <title>arrow</title>
    <desc>Created with Sketch.</desc>
    <defs></defs>
    <g id="Homepage" stroke="none" stroke-width="1" fill="none" fill-rule="evenodd" sketch:type="MSPage">
        <g id="futureminded-one-pager" sketch:type="MSArtboardGroup" transform="translate(-634.000000, -431.000000)" fill="#FFFFFF">
            <g id="Hero" sketch:type="MSLayerGroup">
                <g id="Content" transform="translate(169.000000, 237.000000)" sketch:type="MSShapeGroup">
                    <path d="M475.6,194.5 C475.766667,194.333332 475.966665,194.25 476.2,194.25 C476.433334,194.25 476.633332,194.333332 476.8,194.5 C476.966667,194.666668 477.05,194.866666 477.05,195.1 C477.05,195.333335 476.966667,195.533333 476.8,195.7 L471.9,200.5 C471.733332,200.666667 471.533334,200.75 471.3,200.75 C471.066665,200.75 470.866667,200.666667 470.7,200.5 L465.8,195.7 C465.633332,195.533333 465.55,195.333335 465.55,195.1 C465.55,194.866666 465.633332,194.666668 465.8,194.5 C465.966667,194.333332 466.174999,194.25 466.425,194.25 C466.675001,194.25 466.883332,194.333332 467.05,194.5 L471.3,198.4 L475.6,194.5 Z" id="arrow"></path>
                </g>
            </g>
        </g>
    </g>
</svg>