<?xml version="1.0" encoding="UTF-8" standalone="no"?>
<svg width="100px" height="100px" viewBox="0 0 100 100" version="1.1" xmlns="http://www.w3.org/2000/svg" xmlns:xlink="http://www.w3.org/1999/xlink" xmlns:sketch="http://www.bohemiancoding.com/sketch/ns">
    <!-- Generator: Sketch 3.2.2 (9983) - http://www.bohemiancoding.com/sketch -->
    <title>Artboard 2</title>
    <desc>Created with Sketch.</desc>
    <defs></defs>
    <g id="Homepage" stroke="none" stroke-width="1" fill="none" fill-rule="evenodd" sketch:type="MSPage">
        <g id="Artboard-2" sketch:type="MSArtboardGroup" stroke="#3FCBF3" stroke-width="2" stroke-linecap="round" stroke-linejoin="round">
            <g id="business" sketch:type="MSLayerGroup" transform="translate(11.000000, 11.000000)">
                <path d="M29.6833333,24.1129032 L0.402380952,24.1129032 L0.402380952,76.8317972 L29.6833333,76.8317972 L29.6833333,24.1129032 Z" id="Stroke-5273" sketch:type="MSShapeGroup"></path>
                <path d="M24.3595238,24.1129032 L5.72619048,24.1129032 L5.72619048,13.5691244 L24.3595238,13.5691244 L24.3595238,24.1129032 Z" id="Stroke-5274" sketch:type="MSShapeGroup"></path>
                <path d="M13,13.5691244 L13,0.389400922" id="Stroke-5275" sketch:type="MSShapeGroup"></path>
                <path d="M77.597619,76.8317972 L53.6404762,76.8317972 L53.6404762,32.0207373 L77.597619,32.0207373 L77.597619,76.8317972 Z" id="Stroke-5276" sketch:type="MSShapeGroup"></path>
                <path d="M72.2738095,32.0207373 L58.9642857,32.0207373 L58.9642857,24.1129032 L72.2738095,24.1129032 L72.2738095,32.0207373 Z" id="Stroke-5277" sketch:type="MSShapeGroup"></path>
                <path d="M29.6833333,44.5714286 L53.6404762,44.5714286" id="Stroke-5278" sketch:type="MSShapeGroup"></path>
                <path d="M29.6833333,76.1428571 L53.6404762,76.1428571" id="Stroke-5279" sketch:type="MSShapeGroup"></path>
                <path d="M11.05,18.5714286 L19.0357143,18.5714286" id="Stroke-5280" sketch:type="MSShapeGroup"></path>
                <path d="M5.72619048,34.3571429 L24.3595238,34.3571429" id="Stroke-5281" sketch:type="MSShapeGroup"></path>
                <path d="M5.72619048,28.7857143 L24.3595238,28.7857143" id="Stroke-5282" sketch:type="MSShapeGroup"></path>
                <path d="M5.72619048,39.9285714 L24.3595238,39.9285714" id="Stroke-5283" sketch:type="MSShapeGroup"></path>
                <path d="M5.72619048,44.5714286 L24.3595238,44.5714286" id="Stroke-5284" sketch:type="MSShapeGroup"></path>
                <path d="M5.72619048,50.1428571 L24.3595238,50.1428571" id="Stroke-5285" sketch:type="MSShapeGroup"></path>
                <path d="M5.72619048,55.7142857 L24.3595238,55.7142857" id="Stroke-5286" sketch:type="MSShapeGroup"></path>
                <path d="M5.72619048,60.3571429 L24.3595238,60.3571429" id="Stroke-5287" sketch:type="MSShapeGroup"></path>
                <path d="M58.9642857,37.1428571 L72.2738095,37.1428571" id="Stroke-5288" sketch:type="MSShapeGroup"></path>
                <path d="M58.9642857,41.7857143 L72.2738095,41.7857143" id="Stroke-5289" sketch:type="MSShapeGroup"></path>
                <path d="M58.9642857,47.3571429 L72.2738095,47.3571429" id="Stroke-5290" sketch:type="MSShapeGroup"></path>
                <path d="M58.9642857,52.9285714 L72.2738095,52.9285714" id="Stroke-5291" sketch:type="MSShapeGroup"></path>
                <path d="M58.9642857,63.1428571 L72.2738095,63.1428571" id="Stroke-5292" sketch:type="MSShapeGroup"></path>
                <path d="M58.9642857,57.5714286 L72.2738095,57.5714286" id="Stroke-5293" sketch:type="MSShapeGroup"></path>
                <path d="M35.0071429,52.9285714 L48.3166667,52.9285714" id="Stroke-5294" sketch:type="MSShapeGroup"></path>
                <path d="M35.0071429,57.5714286 L48.3166667,57.5714286" id="Stroke-5295" sketch:type="MSShapeGroup"></path>
                <path d="M35.0071429,63.1428571 L48.3166667,63.1428571" id="Stroke-5296" sketch:type="MSShapeGroup"></path>
                <path d="M16.3738095,68.9239631 L11.05,68.9239631 L11.05,76.8317972 L16.3738095,76.8317972 L16.3738095,68.9239631 Z" id="Stroke-5297" sketch:type="MSShapeGroup"></path>
                <path d="M69.6119048,76.8317972 L64.2880952,76.8317972 L64.2880952,68.9239631 L69.6119048,68.9239631 L69.6119048,76.8317972 Z" id="Stroke-5298" sketch:type="MSShapeGroup"></path>
            </g>
        </g>
    </g>
</svg>