<?xml version="1.0" encoding="UTF-8" standalone="no"?>
<svg width="24px" height="24px" viewBox="0 0 24 24" version="1.1" xmlns="http://www.w3.org/2000/svg" xmlns:xlink="http://www.w3.org/1999/xlink" xmlns:sketch="http://www.bohemiancoding.com/sketch/ns">
    <!-- Generator: Sketch 3.2.2 (9983) - http://www.bohemiancoding.com/sketch -->
    <title>calendar</title>
    <desc>Created with Sketch.</desc>
    <defs></defs>
    <g id="Homepage" stroke="none" stroke-width="1" fill="none" fill-rule="evenodd" sketch:type="MSPage">
        <g id="futureminded-one-pager" sketch:type="MSArtboardGroup" transform="translate(-437.000000, -2971.000000)" stroke-linecap="round" stroke="#FFFFFF" stroke-linejoin="round">
            <g id="2020Plus" sketch:type="MSLayerGroup" transform="translate(0.000000, 2750.000000)">
                <g id="Meta" transform="translate(437.000000, 221.000000)" sketch:type="MSShapeGroup">
                    <g id="Date">
                        <g id="calendar">
                            <path d="M4.5,2.5 L0.5,2.5 L0.5,23.5 L23.5,23.5 L23.5,2.5 L19.5,2.5" id="Stroke-3978"></path>
                            <path d="M7.5,4.5 L4.5,4.5 L4.5,0.5 L7.5,0.5 L7.5,4.5 Z" id="Stroke-3979"></path>
                            <path d="M19.5,4.5 L16.5,4.5 L16.5,0.5 L19.5,0.5 L19.5,4.5 Z" id="Stroke-3980"></path>
                            <path d="M7.5,2.5 L16.5,2.5" id="Stroke-3981"></path>
                            <path d="M0.5,7.5 L23.5,7.5" id="Stroke-3982"></path>
                            <path d="M6.5,9.5 L6.5,21.5" id="Stroke-3983"></path>
                            <path d="M12,9.5 L12,21.5" id="Stroke-3984"></path>
                            <path d="M17.5,9.5 L17.5,21.5" id="Stroke-3985"></path>
                            <path d="M2.5,11.5 L21.5,11.5" id="Stroke-3986"></path>
                            <path d="M2.5,15.5 L21.5,15.5" id="Stroke-3987"></path>
                            <path d="M2.5,19.5 L21.5,19.5" id="Stroke-3988"></path>
                        </g>
                    </g>
                </g>
            </g>
        </g>
    </g>
</svg>