<?xml version="1.0" encoding="UTF-8" standalone="no"?>
<svg width="100px" height="100px" viewBox="0 0 100 100" version="1.1" xmlns="http://www.w3.org/2000/svg" xmlns:xlink="http://www.w3.org/1999/xlink" xmlns:sketch="http://www.bohemiancoding.com/sketch/ns">
    <!-- Generator: Sketch 3.2.2 (9983) - http://www.bohemiancoding.com/sketch -->
    <title>Artboard 2</title>
    <desc>Created with Sketch.</desc>
    <defs></defs>
    <g id="Homepage" stroke="none" stroke-width="1" fill="none" fill-rule="evenodd" sketch:type="MSPage">
        <g id="Artboard-2" sketch:type="MSArtboardGroup" stroke="#FFFFFF" stroke-width="2" stroke-linejoin="round">
            <g id="Stroke-382-+-Stroke-383" sketch:type="MSLayerGroup" transform="translate(12.000000, 11.000000)">
                <path d="M24.8793103,47.6724138 C23.1985172,47.4435862 21.041,46.8006897 19.4310345,46.3103448 L1.72413793,53.1206897 L8.53448276,40.862069 C3.1297931,36.5388621 0.362068966,30.4831034 0.362068966,23.8198621 C0.362068966,10.665 13.4324828,0 29.5566552,0 C45.6835517,0 58.7539655,10.665 58.7539655,23.8198621" id="Stroke-382" sketch:type="MSShapeGroup"></path>
                <path d="M31.274769,53.2391897 C31.274769,67.9686034 48.9244586,79.0612931 64.3784931,72.1910172 L77.9991828,77.6392931 L72.4909759,66.9770172 C76.9422172,63.416569 79.3612517,58.7256034 79.3612517,53.2391897 C79.3612517,42.4052931 68.5981828,32.6310862 55.3180103,32.6310862 C42.0405621,32.6310862 31.274769,42.4052931 31.274769,53.2391897 L31.274769,53.2391897 Z" id="Stroke-383" sketch:type="MSShapeGroup"></path>
            </g>
        </g>
    </g>
</svg>