<?xml version="1.0" encoding="UTF-8" standalone="no"?>
<svg width="100px" height="100px" viewBox="0 0 100 100" version="1.1" xmlns="http://www.w3.org/2000/svg" xmlns:xlink="http://www.w3.org/1999/xlink" xmlns:sketch="http://www.bohemiancoding.com/sketch/ns">
    <!-- Generator: Sketch 3.2.2 (9983) - http://www.bohemiancoding.com/sketch -->
    <title>Artboard 2</title>
    <desc>Created with Sketch.</desc>
    <defs></defs>
    <g id="Homepage" stroke="none" stroke-width="1" fill="none" fill-rule="evenodd" sketch:type="MSPage">
        <g id="Artboard-2" sketch:type="MSArtboardGroup" stroke="#3FCBF3" stroke-width="2" stroke-linecap="round" stroke-linejoin="round">
            <g id="education" sketch:type="MSLayerGroup" transform="translate(10.000000, 22.000000)">
                <path d="M40.5,41.8095238 L0.383333333,21.0952381 L40.5,0.380952381 L80.6166667,21.0952381 L40.5,41.8095238 L40.5,41.8095238 Z" id="Stroke-7383" sketch:type="MSShapeGroup"></path>
                <path d="M28.2904233,51.8322 C31.7902567,52.787819 35.8849233,53.5749619 40.50249,53.5749619 C56.87839,53.5749619 66.7830567,43.2509619 66.7830567,36.2854381 L66.7830567,28.2372476" id="Stroke-7384" sketch:type="MSShapeGroup"></path>
                <path d="M40.5,21.0952381 L14.2166667,28 L14.2166667,44.5714286" id="Stroke-7385" sketch:type="MSShapeGroup"></path>
                <path d="M19.75,50.0952381 C19.75,53.144381 17.2710667,55.6190476 14.2166667,55.6190476 C11.1622667,55.6190476 8.68333333,53.144381 8.68333333,50.0952381 C8.68333333,47.0460952 11.1622667,44.5714286 14.2166667,44.5714286 C17.2710667,44.5714286 19.75,47.0460952 19.75,50.0952381 L19.75,50.0952381 Z" id="Stroke-7386" sketch:type="MSShapeGroup"></path>
            </g>
        </g>
    </g>
</svg>