<?xml version="1.0" encoding="UTF-8" standalone="no"?>
<svg width="100px" height="100px" viewBox="0 0 100 100" version="1.1" xmlns="http://www.w3.org/2000/svg" xmlns:xlink="http://www.w3.org/1999/xlink" xmlns:sketch="http://www.bohemiancoding.com/sketch/ns">
    <!-- Generator: Sketch 3.2.2 (9983) - http://www.bohemiancoding.com/sketch -->
    <title>Artboard 2</title>
    <desc>Created with Sketch.</desc>
    <defs></defs>
    <g id="Homepage" stroke="none" stroke-width="1" fill="none" fill-rule="evenodd" sketch:type="MSPage">
        <g id="Artboard-2" sketch:type="MSArtboardGroup" stroke="#FFFFFF" stroke-width="2" stroke-linejoin="round">
            <g id="Group" sketch:type="MSLayerGroup" transform="translate(10.000000, 9.000000)">
                <path d="M38.1643286,51.5851379 C38.1643286,57.2065172 33.5690429,61.7601034 27.8961857,61.7601034 C22.2260429,61.7601034 17.6307571,57.2065172 17.6307571,51.5851379 C17.6307571,45.9664483 22.2260429,41.4128621 27.8961857,41.4128621 C33.5690429,41.4128621 38.1643286,45.9664483 38.1643286,51.5851379 L38.1643286,51.5851379 Z" id="Stroke-1569" sketch:type="MSShapeGroup"></path>
                <path d="M68.9652286,15.9789448 C68.9652286,18.7896345 66.6635143,21.0650828 63.8298,21.0650828 C60.9960857,21.0650828 58.6970857,18.7896345 58.6970857,15.9789448 C58.6970857,13.1682552 60.9960857,10.8901172 63.8298,10.8901172 C66.6635143,10.8901172 68.9652286,13.1682552 68.9652286,15.9789448 L68.9652286,15.9789448 Z" id="Stroke-1570" sketch:type="MSShapeGroup"></path>
                <path d="M50.1413857,51.5851379 C50.1413857,50.0036207 49.9649571,48.4651379 49.6446714,46.9777586 L55.0271,43.8981034 L48.1816714,32.1496897 L42.9023857,35.2401034 C40.6006714,33.1771379 38.4075286,31.5875517 34.9848143,30.6192759 L34.9848143,24.8687931 L21.2966714,24.8687931 L21.2966714,30.6192759 C17.8712429,31.5875517 15.4311,33.1825172 13.1321,35.2401034 L7.66552857,32.1496897 L0.790242857,43.8981034 L6.1591,46.9777586 C5.84152857,48.4651379 5.65967143,50.0036207 5.65967143,51.5851379 C5.65967143,53.1720345 5.82795714,54.7105172 6.14824286,56.1978966 L0.7631,59.2748621 L7.60581429,71.0286552 L13.1321,67.9328621 C15.4311,69.9931379 17.8712429,71.5881034 21.2966714,72.5563793 L21.2966714,78.7183793 L34.9848143,78.7183793 L34.9848143,72.5563793 C38.4075286,71.5881034 40.6006714,69.9931379 42.9023857,67.9328621 L48.2413857,71.0286552 L55.0569571,59.2748621 L49.6636714,56.1978966 C49.9785286,54.7105172 50.1413857,53.1720345 50.1413857,51.5851379 L50.1413857,51.5851379 Z" id="Stroke-1571" sketch:type="MSShapeGroup"></path>
                <path d="M75.8093,15.9789448 C75.8093,15.0294966 75.6871571,14.1150138 75.4754429,13.2328069 L78.8791571,11.2854966 L75.4564429,5.4086 L72.1721571,7.36128966 C70.8258714,6.09984138 69.2081571,5.14770345 67.4954429,4.60708276 L67.4954429,0.717841379 L60.6527286,0.717841379 L60.6527286,4.60708276 C58.9427286,5.14770345 57.0780143,6.09984138 55.7344429,7.36128966 L52.2628714,5.4086 L48.8103,11.2854966 L52.2031571,13.2328069 C51.9914429,14.1150138 51.8611571,15.0294966 51.8611571,15.9789448 C51.8611571,16.9257034 51.9778714,17.8374966 52.1895857,18.7250828 L48.7804429,20.6697034 L52.2031571,26.5492897 L55.7317286,24.5939103 C57.0753,25.8580483 58.9427286,26.8155655 60.6527286,27.3534966 L60.6527286,31.2400483 L67.4954429,31.2400483 L67.4954429,27.3534966 C69.2081571,26.8155655 70.8258714,25.8580483 72.1748714,24.5939103 L75.5161571,26.5492897 L78.9090143,20.6697034 L75.4917286,18.7250828 C75.7007286,17.8428759 75.8093,16.9257034 75.8093,15.9789448 L75.8093,15.9789448 Z" id="Stroke-1572" sketch:type="MSShapeGroup"></path>
            </g>
        </g>
    </g>
</svg>