<?xml version="1.0" encoding="UTF-8" standalone="no"?>
<svg width="100px" height="100px" viewBox="0 0 100 100" version="1.1" xmlns="http://www.w3.org/2000/svg" xmlns:xlink="http://www.w3.org/1999/xlink" xmlns:sketch="http://www.bohemiancoding.com/sketch/ns">
    <!-- Generator: Sketch 3.2.2 (9983) - http://www.bohemiancoding.com/sketch -->
    <title>Artboard 2</title>
    <desc>Created with Sketch.</desc>
    <defs></defs>
    <g id="Homepage" stroke="none" stroke-width="1" fill="none" fill-rule="evenodd" sketch:type="MSPage">
        <g id="Artboard-2" sketch:type="MSArtboardGroup" stroke="#3FCBF3" stroke-width="2" stroke-linecap="round" stroke-linejoin="round">
            <g id="engagement" sketch:type="MSLayerGroup" transform="translate(15.000000, 16.000000)">
                <path d="M0.2,41.5 L18.2,41.5 L23,35.4285714 L29,45.1428571 L36.2,28.1428571 L42.2,51.2142857 L47,41.5 L69.8,41.5" id="Stroke-8135" sketch:type="MSShapeGroup"></path>
                <path d="M63.0032,34.8568857 C65.3048,29.9414571 67.4,27.1243143 67.4,22.0704571 C67.4,-7.0724 38.6,-5.85811429 35,18.4276 C31.4,-5.85811429 2.6,-7.0724 2.6,22.0704571 C2.6,26.6628857 4.2776,30.6336 5.984,34.8568857" id="Stroke-8136" sketch:type="MSShapeGroup"></path>
                <path d="M13.0016,47.1066 C22.34,59.7351714 35,68.2133143 35,68.2133143 C35,68.2133143 46.3664,59.3004571 55.508,47.1066" id="Stroke-8137" sketch:type="MSShapeGroup"></path>
            </g>
        </g>
    </g>
</svg>