<svg xmlns="http://www.w3.org/2000/svg" xmlns:xlink="http://www.w3.org/1999/xlink" xmlns:sketch="http://www.bohemiancoding.com/sketch/ns" width="200px" height="37px" viewBox="0 0 200 37" version="1.1"><!-- Generator: Sketch 3.2.2 (9983) - http://www.bohemiancoding.com/sketch --><title>logo</title><desc>Created with Sketch.</desc><defs/><g id="Homepage" stroke="none" stroke-width="1" fill="none" fill-rule="evenodd" sketch:type="MSPage"><g id="futureminded-one-pager" sketch:type="MSArtboardGroup" transform="translate(-170.000000, -17.000000)"><g id="Navigation-Bar" sketch:type="MSLayerGroup"><g id="logo" transform="translate(170.000000, 17.000000)" sketch:type="MSShapeGroup"><g id="LOGO"><path d="M12.9655657 0.1 C15.6163168 0.1 17.8 0.3 19.5 0.7 C21.167495 1 22.5 1.7 23.4 2.7 C24.3656641 3.7 25 5 25.4 6.8 C25.7486549 8.5 25.9 10.7 25.9 13.4 C25.9311314 16.1 25.7 18.4 25.4 20.1 C25.0187379 21.8 24.4 23.2 23.4 24.2 C22.4832466 25.1 21.2 25.8 19.5 26.2 C17.7868269 26.5 15.6 26.7 13 26.7 C10.3148146 26.7 8.2 26.5 6.5 26.2 C4.81165714 25.8 3.5 25.1 2.5 24.2 C1.57507133 23.2 0.9 21.8 0.5 20.1 C0.182476507 18.4 0 16.1 0 13.4 C0 10.7 0.2 8.5 0.5 6.8 C0.912393486 5 1.6 3.7 2.5 2.7 C3.49590548 1.7 4.8 1 6.5 0.7 C8.15390857 0.3 10.3 0.1 13 0.1 L12.9655657 0.1 Z" id="&#128506;" fill="#AEDB57"/><path d="M32.9556498 28.3 C32.3150668 28.4 31.7 28.5 31 28.5 C23.8883971 28.5 18.1 23.3 18.1 16.8 C18.1307098 10.4 23.9 5.2 31 5.2 C38.0933316 5.2 43.9 10.4 43.9 16.8 C43.851019 20.7 41.8 24.1 38.6 26.2 C38.634754 26.6 38.7 27 38.8 27.3 C39.2753607 28.7 40.1 29.1 41.7 30.2 C38.6316939 31.3 35.3 30.6 33 28.3 L32.9556498 28.3 Z" id="Oval-2" fill="#FF3487"/><path d="M17.2302294 12.6 C16.9766806 12.6 16.7 12.8 16.5 13.1 L3.77555617 35.7 C3.38862715 36.4 3.7 37 4.5 37 L29.979351 37 C30.7564416 37 31.1 36.4 30.7 35.7 L17.9310024 13.1 C17.7374676 12.8 17.5 12.6 17.2 12.6" id="Fill-1" fill="#41D0FA"/></g><path d="M166.023893 36.5 C167.103303 36.5 167.9 36.1 168.5 35.6 L168.545327 33 L165.981729 33 L165.981729 34.1 L167.288826 34.1 L167.288826 35 C166.959944 35.2 166.5 35.3 166.1 35.3 C165.020379 35.3 164.3 34.5 164.3 33.4 L164.278285 33.4 C164.278285 32.4 165 31.5 166 31.5 C166.65636 31.5 167.1 31.7 167.5 32.1 L168.334505 31.1 C167.718904 30.6 167.1 30.3 166 30.3 C164.227688 30.3 162.9 31.7 162.9 33.4 L162.92059 33.4 C162.92059 35.2 164.2 36.5 166 36.5 L166.023893 36.5 L166.023893 36.5 Z M170.299368 36.4 L171.598032 36.4 L171.598032 34.5 L172.618412 34.5 L173.883345 36.4 L175.401265 36.4 L173.959241 34.3 C174.709768 34 175.2 33.4 175.2 32.4 L175.224174 32.4 C175.224174 31.8 175 31.3 174.7 31 C174.330288 30.6 173.7 30.4 173 30.4 L170.299368 30.4 L170.299368 36.4 L170.299368 36.4 Z M171.598032 33.3 L171.598032 31.6 L172.888264 31.6 C173.520731 31.6 173.9 31.9 173.9 32.5 L173.908644 32.5 C173.908644 33 173.5 33.3 172.9 33.3 L171.598032 33.3 L171.598032 33.3 Z M179.769501 36.5 C181.591005 36.5 182.9 35.1 182.9 33.4 L182.914968 33.4 C182.914968 31.7 181.6 30.3 179.8 30.3 C177.964863 30.3 176.6 31.7 176.6 33.4 L176.640899 33.4 C176.640899 35.1 177.9 36.5 179.8 36.5 L179.769501 36.5 L179.769501 36.5 Z M179.786367 35.3 C178.740689 35.3 178 34.4 178 33.4 L177.998594 33.4 C177.998594 32.4 178.7 31.5 179.8 31.5 C180.815179 31.5 181.6 32.4 181.6 33.4 L181.557273 33.4 C181.557273 34.5 180.8 35.3 179.8 35.3 L179.786367 35.3 L179.786367 35.3 Z M187.038651 36.5 C188.624034 36.5 189.6 35.6 189.6 33.8 L189.627547 30.4 L188.328883 30.4 L188.328883 33.9 C188.328883 34.8 187.8 35.3 187.1 35.3 C186.262825 35.3 185.8 34.8 185.8 33.8 L185.78215 30.4 L184.483486 30.4 L184.483486 33.8 C184.483486 35.6 185.5 36.5 187 36.5 L187.038651 36.5 L187.038651 36.5 Z M191.457484 36.4 L192.756149 36.4 L192.756149 34.6 L193.742797 34.6 C195.06676 34.6 196.1 33.9 196.1 32.5 L196.129304 32.5 C196.129304 31.3 195.3 30.4 193.9 30.4 L191.457484 30.4 L191.457484 36.4 L191.457484 36.4 Z M192.756149 33.4 L192.756149 31.6 L193.759663 31.6 C194.408995 31.6 194.8 31.9 194.8 32.5 L194.813774 32.5 C194.813774 33 194.4 33.4 193.8 33.4 L192.756149 33.4 L192.756149 33.4 Z" id="GROUP" fill="#434343"/><path d="M53.8973999 26.4 L56.6184118 26.4 L56.6184118 16.7 L59.7217147 16.7 L59.7217147 14.4 L56.5734364 14.4 L56.5734364 13.7 C56.5734364 12.4 57.1 11.9 58.1 11.9 C58.7322558 11.9 59.2 12 59.7 12.2 L59.7442024 9.8 C59.1370344 9.6 58.5 9.5 57.5 9.5 C56.3710471 9.5 55.5 9.8 54.9 10.5 C54.2347154 11.1 53.9 12.1 53.9 13.5 L53.8973999 14.3 L52.3907238 14.3 L52.3907238 16.7 L53.8973999 16.7 L53.8973999 26.4 L53.8973999 26.4 Z M65.5055516 26.6 C67.3495432 26.6 68.5 25.7 69.2 24.5 L69.2160225 26.4 L71.9370344 26.4 L71.9370344 14.3 L69.2160225 14.3 L69.2160225 21.1 C69.2160225 23 68.1 24.1 66.5 24.1 C64.9208714 24.1 64 23 64 21.2 L63.9988756 14.3 L61.2778637 14.3 L61.2778637 22 C61.2778637 24.8 62.8 26.6 65.5 26.6 L65.5055516 26.6 L65.5055516 26.6 Z M79.0026704 26.6 C80.014617 26.6 80.8 26.4 81.5 26 L81.4538299 23.7 C80.9141251 24 80.4 24.1 79.8 24.1 C78.8452565 24.1 78.3 23.7 78.3 22.6 L78.3055516 16.7 L81.4988053 16.7 L81.4988053 14.3 L78.3055516 14.3 L78.3055516 10.9 L75.5845397 10.9 L75.5845397 14.3 L74.0778637 14.3 L74.0778637 16.7 L75.5845397 16.7 L75.5845397 23 C75.5845397 25.7 77 26.6 79 26.6 L79.0026704 26.6 L79.0026704 26.6 Z M88.0022488 26.6 C89.8462403 26.6 90.9 25.7 91.7 24.5 L91.7127196 26.4 L94.4337315 26.4 L94.4337315 14.3 L91.7127196 14.3 L91.7127196 21.1 C91.7127196 23 90.6 24.1 89 24.1 C87.4175685 24.1 86.5 23 86.5 21.2 L86.4955727 14.3 L83.7745608 14.3 L83.7745608 22 C83.7745608 24.8 85.3 26.6 88 26.6 L88.0022488 26.6 L88.0022488 26.6 Z M97.5190443 26.4 L100.240056 26.4 L100.240056 21.8 C100.240056 18.6 101.9 17 104.3 17 L104.445256 17 L104.445256 14 C102.3539 14 101 15.2 100.2 17 L100.240056 14.3 L97.5190443 14.3 L97.5190443 26.4 L97.5190443 26.4 Z M111.510892 26.7 C113.6922 26.7 115.2 25.8 116.4 24.4 L114.771609 22.9 C113.827126 23.9 112.9 24.4 111.6 24.4 C109.801827 24.4 108.4 23.3 108.1 21.3 L116.862966 21.3 C116.885453 21 116.9 20.8 116.9 20.5 C116.907941 17 115 14 111.2 14 C107.822909 14 105.4 16.9 105.4 20.3 L105.416725 20.4 C105.416725 24.1 108.1 26.7 111.5 26.7 L111.510892 26.7 L111.510892 26.7 Z M108.115249 19.5 C108.362614 17.6 109.5 16.3 111.2 16.3 C112.995081 16.3 114 17.7 114.2 19.5 L108.115249 19.5 L108.115249 19.5 Z M118.17175 26.4 L119.273647 26.4 L121.0052 19.8 C121.657344 17.3 123.7 15.4 125.6 15.4 C127.234294 15.4 128.3 16.5 128.3 18.2 C128.291216 18.7 128.2 19.3 128.1 19.7 L126.357273 26.4 L127.459171 26.4 L129.168236 19.8 C129.820379 17.3 131.9 15.4 133.7 15.4 C135.39733 15.4 136.5 16.5 136.5 18.2 C136.454252 18.7 136.4 19.3 136.3 19.7 L134.520309 26.4 L135.622207 26.4 L137.331272 19.8 C137.466198 19.2 137.6 18.6 137.6 18.1 C137.623612 15.9 136.1 14.4 134 14.4 C131.889248 14.4 130.3 15.5 129.2 17.3 C128.988334 15.9 128 14.4 125.9 14.4 C124.04104 14.4 122.9 15.5 121.8 16.9 L122.331975 14.7 L121.230077 14.7 L118.17175 26.4 L118.17175 26.4 Z M143.137597 11.6 L144.509346 11.6 L144.914125 10.1 L143.542375 10.1 L143.137597 11.6 L143.137597 11.6 Z M139.38215 26.4 L140.484048 26.4 L143.564863 14.7 L142.462966 14.7 L139.38215 26.4 L139.38215 26.4 Z M144.513844 26.4 L145.615741 26.4 L147.347294 19.8 C148.021925 17.2 150.2 15.4 152.1 15.4 C153.958679 15.4 155.1 16.5 155.1 18.2 C155.083064 18.7 155 19.3 154.9 19.7 L153.149122 26.4 L154.251019 26.4 L155.960084 19.8 C156.095011 19.2 156.2 18.6 156.2 18.1 C156.207449 15.9 154.7 14.4 152.5 14.4 C150.51806 14.4 149.2 15.5 148.1 16.9 L148.674069 14.7 L147.572171 14.7 L144.513844 26.4 L144.513844 26.4 Z M163.183134 26.7 C165.229515 26.7 166.8 25.5 167.9 24.1 L167.343359 26.4 L168.445256 26.4 L172.830358 9.6 L171.728461 9.6 L169.614617 17.7 C169.029937 16 167.6 14.4 165 14.4 C161.631483 14.4 158.6 17.6 158.6 21.8 C158.573155 24.6 160.5 26.7 163.2 26.7 L163.183134 26.7 L163.183134 26.7 Z M163.31806 25.6 C161.226704 25.6 159.8 24 159.8 21.6 C159.765003 18.4 162 15.5 165.1 15.5 C167.455798 15.5 169.1 17.3 169.1 19.5 C169.052424 22.7 166.2 25.6 163.3 25.6 L163.31806 25.6 L163.31806 25.6 Z M183.516514 20.9 C183.718904 20.3 183.8 19.7 183.8 18.9 C183.831342 16.5 182.4 14.4 179.5 14.4 C175.758257 14.4 172.9 18.1 172.9 21.8 C172.857344 24.6 174.9 26.7 177.8 26.7 C179.918482 26.7 181.2 25.9 182.4 24.9 L181.762474 24 C180.660576 25 179.6 25.6 177.8 25.6 C175.600843 25.6 174 24.1 174 21.7 C174.049192 21.5 174 21.2 174.1 20.9 L183.516514 20.9 L183.516514 20.9 Z M179.468728 15.4 C181.69501 15.4 182.7 17.1 182.7 19 C182.706957 19.4 182.7 19.7 182.6 19.9 L174.296557 19.9 C174.9487 17.5 176.9 15.4 179.5 15.4 L179.468728 15.4 L179.468728 15.4 Z M190.334786 26.7 C192.381167 26.7 193.9 25.5 195.1 24.1 L194.49501 26.4 L195.596908 26.4 L199.98201 9.6 L198.880112 9.6 L196.766268 17.7 C196.181588 16 194.8 14.4 192.2 14.4 C188.783134 14.4 185.7 17.6 185.7 21.8 C185.724807 24.6 187.7 26.7 190.3 26.7 L190.334786 26.7 L190.334786 26.7 Z M190.469712 25.6 C188.378356 25.6 186.9 24 186.9 21.6 C186.916655 18.4 189.1 15.5 192.2 15.5 C194.607449 15.5 196.2 17.3 196.2 19.5 C196.204076 22.7 193.3 25.6 190.5 25.6 L190.469712 25.6 L190.469712 25.6 Z" id="futureminded" fill="#434343"/></g></g></g></g></svg>