<?xml version="1.0" encoding="UTF-8" standalone="no"?>
<svg width="69px" height="69px" viewBox="0 0 69 69" version="1.1" xmlns="http://www.w3.org/2000/svg" xmlns:xlink="http://www.w3.org/1999/xlink" xmlns:sketch="http://www.bohemiancoding.com/sketch/ns">
    <!-- Generator: Sketch 3.2.2 (9983) - http://www.bohemiancoding.com/sketch -->
    <title>Group</title>
    <desc>Created with Sketch.</desc>
    <defs></defs>
    <g id="Homepage" stroke="none" stroke-width="1" fill="none" fill-rule="evenodd" sketch:type="MSPage">
        <g id="futureminded-one-pager" sketch:type="MSArtboardGroup" transform="translate(-1165.000000, -4236.000000)" stroke="#FFFFFF" stroke-width="2" stroke-linecap="round" stroke-linejoin="round">
            <g id="2020Plus" sketch:type="MSLayerGroup" transform="translate(0.000000, 2750.000000)">
                <g id="Rectangle-36-+-Screen-Shot-2014-12-30-at-18.13" transform="translate(661.000000, 1237.000000)" sketch:type="MSShapeGroup">
                    <g id="Group-+-VIEW-MAP" transform="translate(503.000000, 250.000000)">
                        <g id="Group" transform="translate(2.000000, 0.000000)">
                            <path d="M20,14.8125 L20,60.8125" id="Stroke-5540"></path>
                            <path d="M40,29.1875 L40,0.4375" id="Stroke-5541"></path>
                            <path d="M37.8704261,48.4914 L20.6530348,60.81365 L0.566078261,46.43865 L0.566078261,0.43865 L20.6530348,14.81365 L40.7399913,0.43865 L60.8269478,14.81365 L60.8269478,29.18865" id="Stroke-5542"></path>
                            <path d="M66.5660783,46.4375 C66.5660783,52.788375 55.0878174,66.5625 55.0878174,66.5625 C55.0878174,66.5625 43.6095565,52.788375 43.6095565,46.4375 C43.6095565,40.086625 48.7460783,34.9375 55.0878174,34.9375 C61.426687,34.9375 66.5660783,40.086625 66.5660783,46.4375 L66.5660783,46.4375 Z" id="Stroke-5543"></path>
                            <path d="M59.3921652,46.4375 C59.3921652,48.820875 57.4638174,50.75 55.0878174,50.75 C52.7089478,50.75 50.7834696,48.820875 50.7834696,46.4375 C50.7834696,44.054125 52.7089478,42.125 55.0878174,42.125 C57.4638174,42.125 59.3921652,44.054125 59.3921652,46.4375 L59.3921652,46.4375 Z" id="Stroke-5544"></path>
                        </g>
                    </g>
                </g>
            </g>
        </g>
    </g>
</svg>