<?xml version="1.0" encoding="UTF-8" standalone="no"?>
<svg width="150px" height="150px" viewBox="0 0 150 150" version="1.1" xmlns="http://www.w3.org/2000/svg" xmlns:xlink="http://www.w3.org/1999/xlink" xmlns:sketch="http://www.bohemiancoding.com/sketch/ns">
    <!-- Generator: Sketch 3.3.3 (12072) - http://www.bohemiancoding.com/sketch -->
    <title>Partner</title>
    <desc>Created with Sketch.</desc>
    <defs></defs>
    <g id="Page-1" stroke="none" stroke-width="1" fill="none" fill-rule="evenodd" sketch:type="MSPage">
        <g id="Partner" sketch:type="MSArtboardGroup">
            <g id="Oval-4-Copy-+-hands-03" sketch:type="MSLayerGroup" transform="translate(14.000000, 13.000000)">
                <circle id="Oval-4-Copy" stroke="#FFFFFF" stroke-width="4" sketch:type="MSShapeGroup" cx="62" cy="62" r="61.2089844"></circle>
                <g id="hands-03" transform="translate(14.000000, 37.000000)">
                    <g id="Layer_1"></g>
                    <g id="Layer_2" transform="translate(1.000000, 1.000000)" stroke-width="3" sketch:type="MSShapeGroup">
                        <g id="Group">
                            <path d="M0.5,0.5 L0.5,40.125 C0.5,40.125 6.5,43.625 7.625,42.875 C8.75,42.125 19.125,9.625 19.125,9.625 C19.125,9.625 19.5,6.25 16,5 C12.5,3.75 0.5,0.5 0.5,0.5 L0.5,0.5 Z" id="Shape" stroke="#979797"></path>
                            <path d="M92.595,0.5 L92.595,40.125 C92.595,40.125 86.595,43.625 85.47,42.875 C84.345,42.125 73.97,9.625 73.97,9.625 C73.97,9.625 73.595,6.25 77.095,5 C80.595,3.75 92.595,0.5 92.595,0.5 L92.595,0.5 Z" id="Shape" stroke="#979797"></path>
                            <path d="M19.125,9.625 L39.681,8.12" id="Shape" stroke="#979797"></path>
                            <path d="M55,34.625 C55,34.625 64.063,44.313 66.499,46.286 C66.731,46.474 66.902,46.592 67,46.625 C67.099,46.658 67.198,46.688 67.295,46.715 C71.207,47.796 74.617,43.504 72.59,40.202 C70.325,36.512 64.575,31.936 60.815,28.637 C58.427,26.541 55.977,24.536 53.644,22.377 C52.112,20.959 50.83,19.071 48.507,19.291 C44.873,19.635 42.572,21.071 39.659,23.038 C37.376,24.579 33.875,26.516 31.343,24.375 C25.753,19.65 41.249,6.126 43.75,5.25 C48.063,3.739 52.662,5.25 56.713,6.85 C61.053,8.565 65.158,10.184 69.755,11.101 C71.403,11.43 73.06,11.722 74.722,11.969" id="Shape" stroke="#979797"></path>
                            <path d="M40.375,43.75 C42.273,45.399 52.645,54.079 47.865,56.041 C45.659,56.946 42.077,55.787 40.313,54.358 C36.938,51.626 11.599,32.49 11.599,32.49" id="Shape" stroke="#979797"></path>
                            <path d="M49,53.438 C49,53.438 57.25,58.875 58.75,50.5 C55.75,46.875 49,40.875 49,40.875" id="Shape" stroke="#979797"></path>
                            <path d="M67.295,46.715 C67.295,46.715 65.75,54.125 58.75,50.5" id="Shape" stroke="#979797"></path>
                            <path d="M72.591,40.203 L82.56,35.56" id="Shape" stroke="#979797"></path>
                            <path d="M0.5,0.5 L0.5,40.125 C0.5,40.125 6.5,43.625 7.625,42.875 C8.75,42.125 19.125,9.625 19.125,9.625 C19.125,9.625 19.5,6.25 16,5 C12.5,3.75 0.5,0.5 0.5,0.5 L0.5,0.5 Z" id="Shape" stroke="#FFFFFF"></path>
                            <path d="M92.595,0.5 L92.595,40.125 C92.595,40.125 86.595,43.625 85.47,42.875 C84.345,42.125 73.97,9.625 73.97,9.625 C73.97,9.625 73.595,6.25 77.095,5 C80.595,3.75 92.595,0.5 92.595,0.5 L92.595,0.5 Z" id="Shape" stroke="#FFFFFF"></path>
                            <path d="M19.125,9.625 L39.696,8.184" id="Shape" stroke="#FFFFFF"></path>
                            <path d="M55,34.625 C55,34.625 64.063,44.313 66.499,46.286 C66.731,46.474 66.902,46.592 67,46.625 C67.099,46.658 67.198,46.688 67.295,46.715 C71.207,47.796 74.617,43.504 72.59,40.202 C70.325,36.512 64.575,31.936 60.815,28.637 C58.427,26.541 55.977,24.536 53.644,22.377 C52.112,20.959 50.83,19.071 48.507,19.291 C44.873,19.635 42.572,21.071 39.659,23.038 C37.376,24.579 33.875,26.516 31.343,24.375 C25.883,19.76 41.118,6.172 43.75,5.25 C48.063,3.739 52.662,5.25 56.713,6.85 C61.053,8.565 65.158,10.184 69.755,11.101 C71.403,11.43 73.06,11.722 74.722,11.969" id="Shape" stroke="#FFFFFF"></path>
                            <path d="M40.375,43.75 C42.273,45.399 52.645,54.079 47.865,56.041 C45.659,56.946 42.077,55.787 40.313,54.358 C36.938,51.626 11.599,32.49 11.599,32.49" id="Shape" stroke="#FFFFFF"></path>
                            <path d="M49,53.438 C49,53.438 57.25,58.875 58.75,50.5 C55.75,46.875 49,40.875 49,40.875" id="Shape" stroke="#FFFFFF"></path>
                            <path d="M67.295,46.715 C67.295,46.715 65.75,54.125 58.75,50.5" id="Shape" stroke="#FFFFFF"></path>
                            <path d="M72.591,40.203 L82.56,35.56" id="Shape" stroke="#FFFFFF"></path>
                        </g>
                    </g>
                </g>
            </g>
        </g>
    </g>
</svg>