<?xml version="1.0" encoding="UTF-8" standalone="no"?>
<svg width="150px" height="150px" viewBox="0 0 150 150" version="1.1" xmlns="http://www.w3.org/2000/svg" xmlns:xlink="http://www.w3.org/1999/xlink" xmlns:sketch="http://www.bohemiancoding.com/sketch/ns">
    <!-- Generator: Sketch 3.3.3 (12072) - http://www.bohemiancoding.com/sketch -->
    <title>Develop</title>
    <desc>Created with Sketch.</desc>
    <defs></defs>
    <g id="Page-1" stroke="none" stroke-width="1" fill="none" fill-rule="evenodd" sketch:type="MSPage">
        <g id="Develop" sketch:type="MSArtboardGroup">
            <g id="Develop-Icon" sketch:type="MSLayerGroup" transform="translate(14.000000, 13.000000)">
                <ellipse id="Oval-4-Copy-2" stroke="#FFFFFF" stroke-width="4" sketch:type="MSShapeGroup" cx="61.2089844" cy="61.6907694" rx="61.2089844" ry="61.2089844"></ellipse>
                <path id="Path-23" stroke="#979797" sketch:type="MSShapeGroup" d=""></path>
                <path d="M28.1418783,62.0253959 L28.1418783,27.8379127 L62.3192002,27.8379127 L62.3192002,93.9673819" id="Path-24" stroke="#FFFFFF" stroke-width="3" sketch:type="MSShapeGroup"></path>
                <path d="M62.3645137,49.7097243 L96.7513641,49.7097243 L96.7513641,94.53461 L28.0768272,94.53461" id="Path-25" stroke="#FFFFFF" stroke-width="3" sketch:type="MSShapeGroup"></path>
                <path d="M34.5811058,86.481785 C39.3203197,86.481785 43.1622117,82.6673519 43.1622117,77.9620103 C43.1622117,73.2566687 36.3506796,62.481785 34.5811058,62.481785 C32.8115321,62.481785 26,73.2566687 26,77.9620103 C26,82.6673519 29.8418919,86.481785 34.5811058,86.481785 Z" id="Oval-10" stroke="#FFFFFF" stroke-width="3" sketch:type="MSShapeGroup"></path>
                <rect id="Rectangle-14" fill="#FFFFFF" sketch:type="MSShapeGroup" x="33" y="76.481785" width="3" height="19.1137431" rx="40"></rect>
                <rect id="Rectangle-15" fill="#FFFFFF" sketch:type="MSShapeGroup" x="33.4705882" y="35.891832" width="9.24064171" height="2.67592404" rx="40"></rect>
                <rect id="Rectangle-15-Copy" fill="#FFFFFF" sketch:type="MSShapeGroup" x="33.4705882" y="46.2132532" width="9.24064171" height="2.67592404" rx="40"></rect>
                <rect id="Rectangle-15-Copy-2" fill="#FFFFFF" sketch:type="MSShapeGroup" x="33.4705882" y="56.5346745" width="9.24064171" height="2.67592404" rx="40"></rect>
                <rect id="Rectangle-15-Copy-3" fill="#FFFFFF" sketch:type="MSShapeGroup" x="47.7165775" y="56.5346745" width="9.24064171" height="2.67592404" rx="40"></rect>
                <rect id="Rectangle-15-Copy-6" fill="#FFFFFF" sketch:type="MSShapeGroup" x="47.7165775" y="66.8560958" width="9.24064171" height="2.67592404" rx="40"></rect>
                <rect id="Rectangle-15-Copy-7" fill="#FFFFFF" sketch:type="MSShapeGroup" x="47.7165775" y="77.3154891" width="9.24064171" height="2.67592404" rx="40"></rect>
                <rect id="Rectangle-15-Copy-8" fill="#FFFFFF" sketch:type="MSShapeGroup" x="67.7379679" y="69.9142947" width="9.24064171" height="2.67592404" rx="40"></rect>
                <rect id="Rectangle-15-Copy-9" fill="#FFFFFF" sketch:type="MSShapeGroup" x="81.9839572" y="69.9142947" width="9.24064171" height="2.67592404" rx="40"></rect>
                <rect id="Rectangle-15-Copy-10" fill="#FFFFFF" sketch:type="MSShapeGroup" x="81.9839572" y="59.5928734" width="9.24064171" height="2.67592404" rx="40"></rect>
                <rect id="Rectangle-15-Copy-11" fill="#FFFFFF" sketch:type="MSShapeGroup" x="67.7379679" y="59.5928734" width="9.24064171" height="2.67592404" rx="40"></rect>
                <rect id="Rectangle-15-Copy-4" fill="#FFFFFF" sketch:type="MSShapeGroup" x="47.7165775" y="46.2132532" width="9.24064171" height="2.67592404" rx="40"></rect>
                <rect id="Rectangle-15-Copy-5" fill="#FFFFFF" sketch:type="MSShapeGroup" x="47.7165775" y="35.891832" width="9.24064171" height="2.67592404" rx="40"></rect>
                <rect id="Rectangle-27" stroke="#FFFFFF" stroke-width="3" sketch:type="MSShapeGroup" x="75" y="79.481785" width="10" height="16" rx="2"></rect>
            </g>
        </g>
    </g>
</svg>