<?xml version="1.0" encoding="utf-8"?>
<!-- Generator: Adobe Illustrator 18.1.0, SVG Export Plug-In . SVG Version: 6.00 Build 0)  -->
<svg version="1.1" id="Layer_1" xmlns="http://www.w3.org/2000/svg" xmlns:xlink="http://www.w3.org/1999/xlink" x="0px" y="0px"
	 viewBox="0 0 1224 792" enable-background="new 0 0 1224 792" xml:space="preserve">
<path fill="#66757F" d="M1098.2,95.5c-35.7,15.8-74.1,26.6-114.4,31.4c41.1-24.7,72.7-63.7,87.6-110.2
	c-38.5,22.8-81.1,39.4-126.5,48.3C908.5,26.3,856.8,2.1,799.5,2.1c-110,0-199.2,89.2-199.2,199.2c0,15.6,1.8,30.8,5.2,45.4
	c-165.5-8.3-312.3-87.6-410.5-208.1c-17.1,29.4-27,63.6-27,100.1c0,69.1,35.2,130.1,88.6,165.8c-32.7-1-63.4-10-90.2-24.9
	c0,0.8,0,1.7,0,2.5c0,96.5,68.7,177,159.8,195.3c-16.7,4.6-34.3,7-52.5,7c-12.8,0-25.3-1.2-37.5-3.6
	c25.3,79.1,98.9,136.7,186.1,138.3c-68.2,53.4-154.1,85.3-247.4,85.3c-16.1,0-31.9-0.9-47.5-2.8c88.1,56.5,192.8,89.5,305.3,89.5
	c366.4,0,566.7-303.5,566.7-566.7c0-8.6-0.2-17.2-0.6-25.8C1037.7,170.5,1071.5,135.5,1098.2,95.5z"/>
</svg>
