<?xml version="1.0" encoding="UTF-8" standalone="no"?>
<svg width="100px" height="100px" viewBox="0 0 100 100" version="1.1" xmlns="http://www.w3.org/2000/svg" xmlns:xlink="http://www.w3.org/1999/xlink" xmlns:sketch="http://www.bohemiancoding.com/sketch/ns">
    <!-- Generator: Sketch 3.2.2 (9983) - http://www.bohemiancoding.com/sketch -->
    <title>Artboard 2</title>
    <desc>Created with Sketch.</desc>
    <defs></defs>
    <g id="Homepage" stroke="none" stroke-width="1" fill="none" fill-rule="evenodd" sketch:type="MSPage">
        <g id="Artboard-2" sketch:type="MSArtboardGroup" stroke="#FFFFFF" stroke-width="2" stroke-linecap="round" stroke-linejoin="round">
            <g id="Group" sketch:type="MSLayerGroup" transform="translate(14.000000, 12.000000)">
                <path d="M43.0178571,10.7 L69.0892857,10.7 L69.0892857,49.7 L3.91071429,49.7 L3.91071429,10.7 L27.375,10.7" id="Stroke-4121" sketch:type="MSShapeGroup"></path>
                <path d="M43.0178571,13.3 L27.375,13.3 L27.375,8.1 L43.0178571,8.1 L43.0178571,13.3 Z" id="Stroke-4122" sketch:type="MSShapeGroup"></path>
                <path d="M70.3928571,49.7 L2.60714286,49.7 C0.792571429,49.7 0,50.4904 0,52.3 C0,54.1096 0.792571429,54.9 2.60714286,54.9 L70.3928571,54.9 C72.2074286,54.9 73,54.1096 73,52.3 C73,50.4904 72.2074286,49.7 70.3928571,49.7 L70.3928571,49.7 Z" id="Stroke-4123" sketch:type="MSShapeGroup"></path>
                <path d="M35,54.9 L35,75.7" id="Stroke-4124" sketch:type="MSShapeGroup"></path>
                <path d="M8.89843929,75.7 L19.5538321,54.9" id="Stroke-4125" sketch:type="MSShapeGroup"></path>
                <path d="M61.4944179,75.7 L50.839025,54.9" id="Stroke-4126" sketch:type="MSShapeGroup"></path>
                <path d="M35,0.3 L35,8.1" id="Stroke-4127" sketch:type="MSShapeGroup"></path>
            </g>
        </g>
    </g>
</svg>